<svg id="blog" xmlns="http://www.w3.org/2000/svg" width="18" height="23" viewBox="0 0 18 23">
  <path id="Union_4" data-name="Union 4" d="M0,23V4.182A4.209,4.209,0,0,1,4.236,0H16.941A1.052,1.052,0,0,1,18,1.045V21.954A1.053,1.053,0,0,1,16.941,23ZM2.118,4.182V20.909H15.883V2.091H4.235A2.106,2.106,0,0,0,2.118,4.182ZM4.729,18.295c-.293,0-.53-.468-.53-1.045s.237-1.045.53-1.045H8.471c.292,0,.529.468.529,1.045s-.238,1.045-.529,1.045Zm.284-3.139A.952.952,0,0,1,4.2,14.11a.951.951,0,0,1,.813-1.045h5.744a.951.951,0,0,1,.813,1.045.952.952,0,0,1-.813,1.045Zm.245-4.182a1.046,1.046,0,1,1,0-2.091H12.74a1.046,1.046,0,1,1,0,2.091Zm0-3.139a1.046,1.046,0,1,1,0-2.091H12.74a1.046,1.046,0,1,1,0,2.091Z" transform="translate(0 0)" fill="#60a4fc"/>
</svg>
