<svg xmlns="http://www.w3.org/2000/svg" width="24.999" height="24.429" viewBox="0 0 24.999 24.429">
  <path id="Union_28" data-name="Union 28" d="M2175.23,241.544a2.885,2.885,0,1,1,2.885,2.884A2.885,2.885,0,0,1,2175.23,241.544Zm-9.615,0a2.884,2.884,0,1,1,2.885,2.884A2.885,2.885,0,0,1,2165.615,241.544Zm-9.616,0a2.885,2.885,0,1,1,2.885,2.884A2.885,2.885,0,0,1,2156,241.544Zm19.23-9.329a2.885,2.885,0,1,1,2.885,2.885A2.885,2.885,0,0,1,2175.23,232.214Zm-9.615,0a2.884,2.884,0,1,1,2.885,2.885A2.885,2.885,0,0,1,2165.615,232.214Zm-9.616,0a2.885,2.885,0,1,1,2.885,2.885A2.885,2.885,0,0,1,2156,232.214Zm19.23-9.33a2.885,2.885,0,1,1,2.885,2.884A2.885,2.885,0,0,1,2175.23,222.884Zm-9.615,0a2.884,2.884,0,1,1,2.885,2.884A2.885,2.885,0,0,1,2165.615,222.884Zm-9.616,0a2.885,2.885,0,1,1,2.885,2.884A2.885,2.885,0,0,1,2156,222.884Z" transform="translate(-2156 -220)"/>
</svg>
