<?xml version="1.0" encoding="UTF-8"?>
<svg id="Layer_1" data-name="Layer 1" xmlns="http://www.w3.org/2000/svg" viewBox="0 0 1044.87 292.43">
  <defs>
    <style>
      .cls-1 {
        fill: #42c6e9;
      }

      .cls-2 {
        fill: #1d4fa3;
        font-family: Georgia-BoldItalic, Georgia;
        font-size: 128px;
        font-style: italic;
        font-weight: 700;
      }

      .cls-3 {
        fill: #5dc9e4;
      }
    </style>
  </defs>
  <g>
    <path className="cls-3" d="M657.74,255.5s-6.22,30.49-9.7,35.96c-3.48,5.48,12.94-13.44,19.91-28.87,0,0,11.45-26.88,7.96-67.2,0,0-5.97-35.34-26.38-53.26l-10.95-8.96s-4.48-1.49,1.99-1.99c0,0,27.57-5.66,40.82-20.41,13.19-14.68,20.16-22.15,21.4-28.87,1.06-5.73,1.49-12.44,1.49-12.44,0,0-17.67,20.16-25.88,24.89-8.3,4.78-11.45,7.96-30.86,13.44,0,0-23.4,2.49-43.31,8.96-19.91,6.47-33.85,22.4-33.85,22.4,0,0-8.3,8.92-12.37,28.85,0,0,22.57-25.61,33.52-24.12,0,0-11.2,16.68-11.7,34.1-.5,17.42,1,31.36,8.96,43.8,7.96,12.44,20.41,16.92,25.88,17.92l-13.44-20.41s-4.48-10.45-4.98-15.43c0,0-2.49-33.35,25.88-35.84,0,0,23.89-1.99,35.34,32.85,0,0,6.47,19.93,0,56.01"/>
    <ellipse className="cls-3" cx="623.11" cy="82.81" rx="12.03" ry="19.27" transform="translate(24.08 273.29) rotate(-25.21)"/>
    <path className="cls-1" d="M683.16,7.77s-.01-7.63,5.14-5.96c5.87,1.9,25.3,7.32,25.3,7.32l.86-.77C703.19,5.1,686.51-.07,685.56,0c-1.2,.09-2.74,1.07-5.27,5.89l2.87,1.88Z"/>
    <path className="cls-1" d="M652.05,53.52c2.16,2.16,5.12,3.34,8.18,3.44l26.32,.82s2.69,0,3.63-1.87c.8-1.59,20.57-28.95,26.43-37.03,.77-1.06,.22-2.56-1.06-2.87-4.77-1.15-14.65-3.58-18.82-4.97-5.61-1.87-11.22-4.67-12.15-8.41,0,0-1.87-1.87-6.54,5.61-4.67,7.48-27.11,40.19-27.11,40.19,0,0-2.26,1.7,1.13,5.09Z"/>
  </g>
  <text className="cls-2" transform="translate(3.4 190.88)"><tspan x="0" y="0">Learner</tspan></text>
  <text className="cls-2" transform="translate(694.91 194.41)"><tspan x="0" y="0">Hunt</tspan></text>
</svg>